<svg xmlns="http://www.w3.org/2000/svg" xmlns:xlink="http://www.w3.org/1999/xlink" width="24" height="20" viewBox="0 0 24 20">
  <defs>
    <clipPath id="clip-path">
      <rect width="24" height="20" fill="none"/>
    </clipPath>
    <clipPath id="clip-path-2">
      <path id="Combined_Shape" data-name="Combined Shape" d="M21,20H3a3,3,0,0,1-3-3V6A3,3,0,0,1,3,3H6.465L8.168.445A1,1,0,0,1,9,0h6a1,1,0,0,1,.832.446L17.536,3H21a3,3,0,0,1,3,3V17A3,3,0,0,1,21,20ZM3,5A1,1,0,0,0,2,6V17a1,1,0,0,0,1,1H21a1,1,0,0,0,1-1V6a1,1,0,0,0-1-1H17a1,1,0,0,1-.833-.446L14.465,2H9.536l-1.7,2.555A1,1,0,0,1,7,5Zm9,11a5,5,0,1,1,5-5A5.006,5.006,0,0,1,12,16Zm0-8a3,3,0,1,0,3,3A3,3,0,0,0,12,8Z" transform="translate(0 2)"/>
    </clipPath>
    <clipPath id="clip-path-3">
      <rect width="24" height="24" fill="none"/>
    </clipPath>
  </defs>
  <g id="Icon" clip-path="url(#clip-path)">
    <path id="Combined_Shape-2" data-name="Combined Shape" d="M21,20H3a3,3,0,0,1-3-3V6A3,3,0,0,1,3,3H6.465L8.168.445A1,1,0,0,1,9,0h6a1,1,0,0,1,.832.446L17.536,3H21a3,3,0,0,1,3,3V17A3,3,0,0,1,21,20ZM3,5A1,1,0,0,0,2,6V17a1,1,0,0,0,1,1H21a1,1,0,0,0,1-1V6a1,1,0,0,0-1-1H17a1,1,0,0,1-.833-.446L14.465,2H9.536l-1.7,2.555A1,1,0,0,1,7,5Zm9,11a5,5,0,1,1,5-5A5.006,5.006,0,0,1,12,16Zm0-8a3,3,0,1,0,3,3A3,3,0,0,0,12,8Z" transform="translate(0 0)"/>
    <g transform="translate(0 -2)" clip-path="url(#clip-path-2)">
      <g id="COLOR_black" data-name="COLOR/ black" clip-path="url(#clip-path-3)">
        <rect id="Rectangle" width="24" height="24" fill="#262626"/>
      </g>
    </g>
  </g>
</svg>
