<svg xmlns="http://www.w3.org/2000/svg" xmlns:xlink="http://www.w3.org/1999/xlink" width="20" height="14" viewBox="0 0 20 14">
  <defs>
    <clipPath id="clip-path">
      <rect width="20" height="14" fill="none"/>
    </clipPath>
    <clipPath id="clip-path-2">
      <path id="Combined_Shape" data-name="Combined Shape" d="M1,14a1,1,0,0,1,0-2H19a1,1,0,0,1,0,2ZM1,8A1,1,0,0,1,1,6H19a1,1,0,0,1,0,2ZM1,2A1,1,0,0,1,1,0H19a1,1,0,0,1,0,2Z" transform="translate(2 5)"/>
    </clipPath>
    <clipPath id="clip-path-3">
      <rect width="24" height="24" fill="none"/>
    </clipPath>
  </defs>
  <g id="Organize" clip-path="url(#clip-path)">
    <path id="Combined_Shape-2" data-name="Combined Shape" d="M1,14a1,1,0,0,1,0-2H19a1,1,0,0,1,0,2ZM1,8A1,1,0,0,1,1,6H19a1,1,0,0,1,0,2ZM1,2A1,1,0,0,1,1,0H19a1,1,0,0,1,0,2Z"/>
    <g transform="translate(-2 -5)" clip-path="url(#clip-path-2)">
      <g id="COLOR_black" data-name="COLOR/ black" clip-path="url(#clip-path-3)">
        <rect id="Rectangle" width="24" height="24" fill="#262626"/>
      </g>
    </g>
  </g>
</svg>

