<svg  xmlns="http://www.w3.org/2000/svg" xmlns:xlink="http://www.w3.org/1999/xlink" width="81" height="24" viewBox="0 0 81 24">
  <defs>
    <clipPath id="clip-path">
      <rect width="18" height="20" fill="none"/>
    </clipPath>
    <clipPath id="clip-path-2">
      <path id="Combined_Shape" data-name="Combined Shape" d="M17,20a1,1,0,0,1-1-1V17a3,3,0,0,0-3-3H5a3,3,0,0,0-3,3v2a1,1,0,0,1-2,0V17a5.006,5.006,0,0,1,5-5h8a5.006,5.006,0,0,1,5,5v2A1,1,0,0,1,17,20ZM9,10a5,5,0,1,1,5-5A5.006,5.006,0,0,1,9,10ZM9,2a3,3,0,1,0,3,3A3,3,0,0,0,9,2Z" transform="translate(3 2)"/>
    </clipPath>
    <clipPath id="clip-path-3">
      <rect width="24" height="24" fill="none"/>
    </clipPath>
  </defs>
  <g id="User" transform="translate(1)">
    <g id="Icon" transform="translate(62 2)" clip-path="url(#clip-path)">
      <path id="Combined_Shape-2" data-name="Combined Shape" d="M17,20a1,1,0,0,1-1-1V17a3,3,0,0,0-3-3H5a3,3,0,0,0-3,3v2a1,1,0,0,1-2,0V17a5.006,5.006,0,0,1,5-5h8a5.006,5.006,0,0,1,5,5v2A1,1,0,0,1,17,20ZM9,10a5,5,0,1,1,5-5A5.006,5.006,0,0,1,9,10ZM9,2a3,3,0,1,0,3,3A3,3,0,0,0,9,2Z" transform="translate(0 0)"/>
      <g transform="translate(-3 -2)" clip-path="url(#clip-path-2)">
        <g id="COLOR_black" data-name="COLOR/ black" clip-path="url(#clip-path-3)">
          <rect id="Rectangle" width="24" height="24" fill="white"/>
        </g>
      </g>
    </g>
  
  </g>
</svg>
